<svg xmlns="http://www.w3.org/2000/svg" xmlns:xlink="http://www.w3.org/1999/xlink" version="1.1" id="Layer_1" x="0px" y="0px" enable-background="new 0 0 496 496" xml:space="preserve" viewBox="96.59 26.23 310.84 327.84"><path fill="#000000" opacity="1.000000" stroke="none" d=" M160.515137,61.780464  C166.748947,59.038551 170.707184,54.332413 174.385651,49.334400  C178.432251,43.836224 182.199249,38.120213 187.030869,33.239731  C189.263580,30.984446 191.547440,28.786381 194.457672,27.399269  C199.396255,25.045412 203.265564,26.232822 205.739380,31.091236  C207.740540,35.021362 208.118378,39.357716 208.330673,43.700115  C209.035553,58.118011 206.678314,72.230629 203.893036,86.271805  C203.300446,89.259155 203.586075,91.756599 204.825592,94.436333  C208.180496,101.689415 211.429657,108.992760 214.625427,116.317749  C218.440887,125.063087 231.098862,132.147217 240.637390,131.354080  C250.048737,130.571533 258.874420,127.500923 267.847321,125.071747  C291.244446,118.737587 314.679077,119.944733 338.166168,124.115898  C341.782135,124.758072 345.476501,125.951477 347.428589,129.442596  C354.091187,141.358002 362.314972,152.347260 368.171112,164.744675  C371.043030,170.824509 372.800110,177.237595 374.138458,183.739258  C376.871002,197.013535 381.149994,209.729172 386.961121,221.950287  C393.932770,236.612137 396.002167,252.501419 398.082855,268.296356  C400.105438,283.649933 403.400848,298.722351 406.652405,313.820587  C409.341766,326.308167 405.190735,331.410522 392.416046,331.156647  C379.086761,330.891754 378.928284,330.880096 379.889008,317.857605  C381.276733,299.047180 378.295380,281.566711 369.392242,264.402496  C362.949127,251.980942 356.893677,239.836380 346.151794,230.635056  C343.073334,227.998108 340.114319,223.715256 335.524139,225.576294  C331.076843,227.379395 331.386597,232.359299 331.098328,236.474579  C330.544189,244.385574 331.446472,252.157913 334.633942,259.444305  C337.097137,265.075043 337.189331,270.611450 335.789886,276.461884  C333.699646,285.200348 332.155334,294.019196 332.174835,303.080627  C332.207184,318.097565 328.244232,322.284485 313.321716,323.542847  C308.787506,323.925171 304.332581,323.525696 300.017456,322.064941  C296.845093,320.991058 295.909851,318.910828 297.518860,315.842560  C299.539917,311.988434 301.869537,308.331696 304.872681,305.176819  C313.807953,295.790192 315.155518,283.517670 308.369873,272.375244  C305.233246,267.224640 301.308716,262.681396 297.237122,258.273926  C292.871521,253.548187 290.127350,248.251511 290.666016,241.612030  C290.732666,240.790451 290.650452,239.939911 290.519043,239.121765  C289.335388,231.753235 288.246033,231.179688 281.670227,234.903839  C273.408905,239.582565 265.281586,244.499344 256.987946,249.118591  C254.324860,250.601837 253.264511,252.399551 253.271606,255.464172  C253.304703,269.774048 253.651535,284.154388 251.216385,298.295654  C249.357544,309.090302 246.316711,319.676819 244.041855,330.406830  C243.185074,334.447998 243.128250,338.651917 242.487030,342.747253  C241.475708,349.206482 238.573547,351.999664 232.274597,353.302582  C224.880493,354.831970 217.710220,353.996552 210.655487,351.588989  C203.821350,349.256683 203.039368,347.169525 207.179138,341.069641  C211.505630,334.694641 215.586716,328.254364 217.213684,320.579132  C219.015427,312.079407 219.173431,303.480865 218.907791,294.839355  C218.611084,285.187378 218.755005,275.528442 217.888077,265.885040  C217.597153,262.648865 216.881165,260.888916 213.292297,261.059753  C206.612503,261.377716 199.978210,260.765289 193.409271,259.534912  C189.510376,258.804626 188.830948,261.438171 188.583282,264.234222  C187.761597,273.509979 187.214905,282.811676 186.294464,292.076752  C184.931580,305.795380 184.285812,319.599640 181.397079,333.145050  C179.883621,340.241669 175.701080,344.171783 168.497025,345.007721  C163.509064,345.586487 158.496887,345.695709 153.528473,345.241028  C145.785324,344.532410 143.471771,339.190643 148.341980,333.120636  C152.399719,328.063232 157.032608,323.512756 159.045776,317.046234  C162.872818,304.753357 163.657028,292.035797 159.298294,280.204559  C150.980652,257.627197 146.608444,233.602386 134.059860,212.506409  C130.376129,206.313522 132.732941,198.417419 133.180801,191.362015  C133.857483,180.701752 133.419662,170.052460 133.742828,159.405045  C133.811371,157.146637 132.450302,156.183258 130.715271,155.328232  C125.905602,152.957977 120.923302,150.902878 115.590973,150.419922  C110.565048,149.964752 107.635368,147.153336 107.056496,142.748337  C105.190445,128.548264 100.706329,114.518005 104.431030,99.885216  C105.673035,95.005905 104.789185,90.156639 101.540024,85.695908  C97.724098,80.457077 96.374657,74.285873 96.615707,67.726662  C96.750114,64.069176 98.132645,61.509563 101.663986,60.647499  C107.805031,59.148369 112.977791,56.194347 117.733307,52.001652  C122.004234,48.236195 127.303322,48.598576 130.251190,53.680443  C137.741638,66.593292 148.911621,63.864479 160.515137,61.780464 z"></path></svg>
