<svg version="1.1" id="Layer_1" xmlns="http://www.w3.org/2000/svg" xmlns:xlink="http://www.w3.org/1999/xlink" x="0px" y="0px"
	 width="100%" viewBox="0 0 496 496" enable-background="new 0 0 496 496" xml:space="preserve">
<path fill="#000000" opacity="1.000000" stroke="none" 
	d="
M160.515137,61.780464 
	C166.748947,59.038551 170.707184,54.332413 174.385651,49.334400 
	C178.432251,43.836224 182.199249,38.120213 187.030869,33.239731 
	C189.263580,30.984446 191.547440,28.786381 194.457672,27.399269 
	C199.396255,25.045412 203.265564,26.232822 205.739380,31.091236 
	C207.740540,35.021362 208.118378,39.357716 208.330673,43.700115 
	C209.035553,58.118011 206.678314,72.230629 203.893036,86.271805 
	C203.300446,89.259155 203.586075,91.756599 204.825592,94.436333 
	C208.180496,101.689415 211.429657,108.992760 214.625427,116.317749 
	C218.440887,125.063087 231.098862,132.147217 240.637390,131.354080 
	C250.048737,130.571533 258.874420,127.500923 267.847321,125.071747 
	C291.244446,118.737587 314.679077,119.944733 338.166168,124.115898 
	C341.782135,124.758072 345.476501,125.951477 347.428589,129.442596 
	C354.091187,141.358002 362.314972,152.347260 368.171112,164.744675 
	C371.043030,170.824509 372.800110,177.237595 374.138458,183.739258 
	C376.871002,197.013535 381.149994,209.729172 386.961121,221.950287 
	C393.932770,236.612137 396.002167,252.501419 398.082855,268.296356 
	C400.105438,283.649933 403.400848,298.722351 406.652405,313.820587 
	C409.341766,326.308167 405.190735,331.410522 392.416046,331.156647 
	C379.086761,330.891754 378.928284,330.880096 379.889008,317.857605 
	C381.276733,299.047180 378.295380,281.566711 369.392242,264.402496 
	C362.949127,251.980942 356.893677,239.836380 346.151794,230.635056 
	C343.073334,227.998108 340.114319,223.715256 335.524139,225.576294 
	C331.076843,227.379395 331.386597,232.359299 331.098328,236.474579 
	C330.544189,244.385574 331.446472,252.157913 334.633942,259.444305 
	C337.097137,265.075043 337.189331,270.611450 335.789886,276.461884 
	C333.699646,285.200348 332.155334,294.019196 332.174835,303.080627 
	C332.207184,318.097565 328.244232,322.284485 313.321716,323.542847 
	C308.787506,323.925171 304.332581,323.525696 300.017456,322.064941 
	C296.845093,320.991058 295.909851,318.910828 297.518860,315.842560 
	C299.539917,311.988434 301.869537,308.331696 304.872681,305.176819 
	C313.807953,295.790192 315.155518,283.517670 308.369873,272.375244 
	C305.233246,267.224640 301.308716,262.681396 297.237122,258.273926 
	C292.871521,253.548187 290.127350,248.251511 290.666016,241.612030 
	C290.732666,240.790451 290.650452,239.939911 290.519043,239.121765 
	C289.335388,231.753235 288.246033,231.179688 281.670227,234.903839 
	C273.408905,239.582565 265.281586,244.499344 256.987946,249.118591 
	C254.324860,250.601837 253.264511,252.399551 253.271606,255.464172 
	C253.304703,269.774048 253.651535,284.154388 251.216385,298.295654 
	C249.357544,309.090302 246.316711,319.676819 244.041855,330.406830 
	C243.185074,334.447998 243.128250,338.651917 242.487030,342.747253 
	C241.475708,349.206482 238.573547,351.999664 232.274597,353.302582 
	C224.880493,354.831970 217.710220,353.996552 210.655487,351.588989 
	C203.821350,349.256683 203.039368,347.169525 207.179138,341.069641 
	C211.505630,334.694641 215.586716,328.254364 217.213684,320.579132 
	C219.015427,312.079407 219.173431,303.480865 218.907791,294.839355 
	C218.611084,285.187378 218.755005,275.528442 217.888077,265.885040 
	C217.597153,262.648865 216.881165,260.888916 213.292297,261.059753 
	C206.612503,261.377716 199.978210,260.765289 193.409271,259.534912 
	C189.510376,258.804626 188.830948,261.438171 188.583282,264.234222 
	C187.761597,273.509979 187.214905,282.811676 186.294464,292.076752 
	C184.931580,305.795380 184.285812,319.599640 181.397079,333.145050 
	C179.883621,340.241669 175.701080,344.171783 168.497025,345.007721 
	C163.509064,345.586487 158.496887,345.695709 153.528473,345.241028 
	C145.785324,344.532410 143.471771,339.190643 148.341980,333.120636 
	C152.399719,328.063232 157.032608,323.512756 159.045776,317.046234 
	C162.872818,304.753357 163.657028,292.035797 159.298294,280.204559 
	C150.980652,257.627197 146.608444,233.602386 134.059860,212.506409 
	C130.376129,206.313522 132.732941,198.417419 133.180801,191.362015 
	C133.857483,180.701752 133.419662,170.052460 133.742828,159.405045 
	C133.811371,157.146637 132.450302,156.183258 130.715271,155.328232 
	C125.905602,152.957977 120.923302,150.902878 115.590973,150.419922 
	C110.565048,149.964752 107.635368,147.153336 107.056496,142.748337 
	C105.190445,128.548264 100.706329,114.518005 104.431030,99.885216 
	C105.673035,95.005905 104.789185,90.156639 101.540024,85.695908 
	C97.724098,80.457077 96.374657,74.285873 96.615707,67.726662 
	C96.750114,64.069176 98.132645,61.509563 101.663986,60.647499 
	C107.805031,59.148369 112.977791,56.194347 117.733307,52.001652 
	C122.004234,48.236195 127.303322,48.598576 130.251190,53.680443 
	C137.741638,66.593292 148.911621,63.864479 160.515137,61.780464 
z"/>
<path fill="#000000" opacity="1.000000" stroke="none" 
	d="
M359.321045,394.821289 
	C370.565063,395.062897 381.407379,393.587036 392.116455,395.704529 
	C400.237000,397.310181 406.300385,401.985840 408.892334,409.792358 
	C414.451599,426.536133 413.973663,443.499054 408.519501,460.171265 
	C405.476593,469.472717 397.899994,473.674469 388.598480,474.191406 
	C379.476257,474.698364 370.304291,474.253845 361.156433,474.385925 
	C357.861084,474.433502 356.806580,472.963379 356.813049,469.875366 
	C356.862640,446.252655 356.828583,422.629791 356.847839,399.006958 
	C356.849182,397.362152 356.793488,395.581787 359.321045,394.821289 
M373.231293,413.755066 
	C373.235443,427.736237 373.213257,441.717499 373.275391,455.698395 
	C373.283630,457.554077 372.625732,459.776459 375.324463,460.707977 
	C383.689026,463.595215 392.892273,458.835388 394.730316,450.190704 
	C396.720001,440.832733 396.371521,431.248993 395.164001,421.890411 
	C393.694275,410.499786 389.780121,408.010376 377.848206,408.185577 
	C374.395355,408.236328 372.864960,409.381287 373.231293,413.755066 
z"/>
<path fill="#000000" opacity="1.000000" stroke="none" 
	d="
M246.663696,450.617371 
	C244.931656,445.088074 240.411591,443.059387 236.155960,440.816833 
	C230.862961,438.027618 225.181351,435.959351 220.481735,432.090149 
	C213.260269,426.144775 210.628052,416.770782 213.690872,407.695648 
	C216.552460,399.216797 224.022949,393.928162 233.520767,393.657379 
	C249.358719,393.205811 256.774994,398.222717 259.835876,411.458801 
	C261.109589,416.966705 260.304474,418.072296 254.828094,418.263367 
	C253.163559,418.321411 251.474762,418.142822 249.835083,418.359802 
	C246.402786,418.814056 244.636093,417.468170 243.971161,414.034760 
	C243.299850,410.568390 241.424774,407.918335 237.656647,407.090057 
	C234.154541,406.320251 231.364838,407.408783 229.444946,410.362793 
	C227.284348,413.687103 228.300964,416.829437 230.696213,419.494904 
	C233.420471,422.526520 237.165009,424.133942 240.753799,425.887177 
	C245.249207,428.083344 249.696045,430.356140 253.703064,433.385101 
	C261.826813,439.525848 264.757843,448.557495 261.944244,458.696716 
	C259.469177,467.615967 251.960327,473.908264 242.677536,475.365631 
	C236.246262,476.375336 230.077209,475.900879 224.106552,473.395325 
	C216.081848,470.027771 209.940689,459.733093 210.714249,451.169342 
	C210.744186,450.837830 210.662857,450.451172 210.805771,450.181610 
	C213.368042,445.349121 218.333450,448.575653 221.936493,446.960663 
	C223.606720,446.212006 226.025177,446.334900 226.488480,449.250153 
	C226.696747,450.560638 227.065598,451.845154 227.349472,453.144104 
	C228.830750,459.921661 232.480164,462.620117 239.060699,461.798309 
	C244.458191,461.124237 246.814484,457.803955 246.663696,450.617371 
z"/>
<path fill="#000000" opacity="1.000000" stroke="none" 
	d="
M115.970161,394.679260 
	C123.982246,394.693756 124.036682,394.678284 126.122169,402.010864 
	C132.479767,424.364227 138.802368,446.727600 145.095108,469.099274 
	C145.487900,470.495697 146.244095,471.904907 145.497208,473.964294 
	C141.153442,474.714569 136.536789,474.412018 131.956879,474.189087 
	C129.294998,474.059540 129.302124,471.512604 128.830231,469.698456 
	C126.090157,459.164398 126.124207,459.155518 115.428963,459.158142 
	C115.262611,459.158203 115.096245,459.157196 114.929901,459.158417 
	C102.287590,459.250092 104.672615,457.990906 102.068779,469.152344 
	C101.160988,473.043549 99.530800,474.959229 95.329323,474.399353 
	C92.074173,473.965576 88.703346,474.821228 85.556992,473.827057 
	C84.219597,472.068817 85.237350,470.509583 85.670486,468.986938 
	C92.303467,445.670258 99.137497,422.408783 105.512260,399.022034 
	C107.257492,392.619415 111.848709,395.332977 115.970161,394.679260 
M109.384621,437.701111 
	C109.269073,438.356628 109.168015,439.015137 109.035225,439.667145 
	C108.657013,441.524231 107.264694,444.227600 110.285622,444.488129 
	C114.248711,444.829895 118.508751,446.115997 122.265991,443.465027 
	C122.530838,443.278168 122.541069,442.501129 122.436096,442.053253 
	C120.296394,432.924500 118.122581,423.803741 115.955574,414.681366 
	C115.626198,414.696869 115.296814,414.712372 114.967430,414.727875 
	C113.154663,422.113556 111.341888,429.499268 109.384621,437.701111 
z"/>
<path fill="#000000" opacity="1.000000" stroke="none" 
	d="
M183.711334,411.385254 
	C177.856247,405.314484 171.801270,406.548584 168.828156,414.008331 
	C167.179352,418.145233 167.189072,422.478516 167.197983,426.796753 
	C167.216843,435.921112 166.128708,445.142639 168.637527,454.092010 
	C169.689636,457.845123 171.719528,461.220245 176.305984,461.633209 
	C180.312988,461.994019 183.008209,460.013367 184.648270,456.549866 
	C185.494278,454.763306 186.147827,452.854706 186.629852,450.936310 
	C187.034225,449.326904 187.244949,447.686249 188.510864,445.935333 
	C192.960831,446.450684 197.257462,448.098267 201.526367,449.771576 
	C203.653259,450.605316 202.980392,452.368500 202.667465,454.039825 
	C200.062256,467.953796 191.871582,475.385132 178.308655,476.070984 
	C166.174866,476.684509 156.598740,469.743347 152.986374,456.903717 
	C148.755447,441.865479 149.193298,426.589417 152.936127,411.559052 
	C156.072250,398.965027 164.660187,393.221832 178.128891,393.528839 
	C191.286301,393.828735 198.531464,399.889679 201.761322,412.853668 
	C202.568863,416.094940 201.676132,417.601105 198.611343,418.195709 
	C198.284790,418.259094 197.949371,418.279755 197.625259,418.352356 
	C187.867081,420.537933 187.867233,420.538605 183.711334,411.385254 
z"/>
<path fill="#000000" opacity="1.000000" stroke="none" 
	d="
M344.809692,443.676025 
	C345.769684,448.119354 346.523834,452.095703 345.806183,456.371674 
	C343.489990,470.172455 333.603851,476.115356 321.475037,475.936127 
	C308.146149,475.739258 299.703613,467.280334 298.318176,453.638367 
	C301.995270,451.493225 306.231934,451.904083 310.273285,451.415955 
	C312.143433,451.190094 312.764191,452.523315 313.385864,454.019653 
	C314.144409,455.845612 314.953796,457.744843 316.173126,459.266235 
	C319.153076,462.984528 324.525726,463.454712 327.609833,460.108154 
	C331.217072,456.193817 331.360474,451.449066 329.855743,446.534058 
	C328.488770,442.069092 325.596130,439.520844 320.882690,439.155396 
	C320.052887,439.091064 319.211182,438.898010 318.395752,438.977600 
	C313.832977,439.422943 313.098877,436.978241 313.717499,433.166504 
	C314.374664,429.117523 314.902740,425.713409 320.427185,425.179535 
	C324.329285,424.802399 327.005646,421.491302 327.697327,417.252350 
	C328.523010,412.192291 326.758087,408.557892 322.684326,407.813965 
	C318.151733,406.986267 315.093842,409.470642 314.226349,413.639252 
	C313.210205,418.522156 310.283264,417.810150 306.849030,417.310638 
	C298.051300,416.030884 297.258423,414.724426 300.816620,406.606812 
	C305.228394,396.541779 316.367340,391.809662 328.583679,394.810608 
	C338.515106,397.250275 344.002258,405.137451 343.301849,416.124725 
	C342.889648,422.590698 339.189850,427.159454 333.663300,431.305542 
	C338.506897,434.526215 342.987335,437.736145 344.809692,443.676025 
z"/>
</svg>